<svg width="250" height="250" viewBox="0 0 250 250" fill="none" xmlns="http://www.w3.org/2000/svg">
<path d="M165 125C165 132.911 162.654 140.645 158.259 147.223C153.864 153.801 147.616 158.928 140.307 161.955C132.998 164.983 124.956 165.775 117.196 164.231C109.437 162.688 102.31 158.878 96.7157 153.284C91.1216 147.69 87.312 140.563 85.7686 132.804C84.2252 125.044 85.0173 117.002 88.0448 109.693C91.0723 102.384 96.1992 96.1365 102.777 91.7412C109.355 87.346 117.089 85 125 85C135.599 85.033 145.754 89.2578 153.248 96.7522C160.742 104.246 164.967 114.401 165 125ZM250 70V180C250 198.565 242.625 216.37 229.497 229.497C216.37 242.625 198.565 250 180 250H70C51.4348 250 33.6301 242.625 20.5025 229.497C7.37498 216.37 0 198.565 0 180V70C0 51.4348 7.37498 33.6301 20.5025 20.5025C33.6301 7.37498 51.4348 0 70 0H180C198.565 0 216.37 7.37498 229.497 20.5025C242.625 33.6301 250 51.4348 250 70ZM185 125C185 113.133 181.481 101.533 174.888 91.6658C168.295 81.7988 158.925 74.1085 147.961 69.5672C136.997 65.026 124.933 63.8378 113.295 66.1529C101.656 68.468 90.9647 74.1824 82.5736 82.5736C74.1824 90.9647 68.468 101.656 66.1529 113.295C63.8378 124.933 65.026 136.997 69.5672 147.961C74.1085 158.925 81.7988 168.295 91.6658 174.888C101.533 181.481 113.133 185 125 185C140.913 185 156.174 178.679 167.426 167.426C178.679 156.174 185 140.913 185 125ZM205 60C205 57.0333 204.12 54.1332 202.472 51.6665C200.824 49.1997 198.481 47.2771 195.74 46.1418C192.999 45.0065 189.983 44.7094 187.074 45.2882C184.164 45.867 181.491 47.2956 179.393 49.3934C177.296 51.4912 175.867 54.1639 175.288 57.0736C174.709 59.9834 175.007 62.9994 176.142 65.7402C177.277 68.4811 179.2 70.8238 181.666 72.472C184.133 74.1203 187.033 75 190 75C193.978 75 197.794 73.4196 200.607 70.6066C203.42 67.7936 205 63.9782 205 60Z" fill="black"/>
</svg>
