<svg width="250" height="250" viewBox="0 0 250 250" fill="none" xmlns="http://www.w3.org/2000/svg">
<path d="M222.222 0C229.589 0 236.655 2.92658 241.864 8.13592C247.073 13.3453 250 20.4107 250 27.7778V222.222C250 229.589 247.073 236.655 241.864 241.864C236.655 247.073 229.589 250 222.222 250H27.7778C20.4107 250 13.3453 247.073 8.13592 241.864C2.92658 236.655 0 229.589 0 222.222V27.7778C0 20.4107 2.92658 13.3453 8.13592 8.13592C13.3453 2.92658 20.4107 0 27.7778 0H222.222ZM215.278 215.278V141.667C215.278 129.658 210.507 118.142 202.016 109.65C193.525 101.159 182.008 96.3889 170 96.3889C158.194 96.3889 144.444 103.611 137.778 114.444V99.0278H99.0278V215.278H137.778V146.806C137.778 136.111 146.389 127.361 157.083 127.361C162.24 127.361 167.186 129.41 170.833 133.056C174.479 136.703 176.528 141.649 176.528 146.806V215.278H215.278ZM53.8889 77.2222C60.0773 77.2222 66.0122 74.7639 70.3881 70.3881C74.7639 66.0122 77.2222 60.0773 77.2222 53.8889C77.2222 40.9722 66.8056 30.4167 53.8889 30.4167C47.6637 30.4167 41.6934 32.8896 37.2915 37.2915C32.8896 41.6934 30.4167 47.6637 30.4167 53.8889C30.4167 66.8056 40.9722 77.2222 53.8889 77.2222ZM73.1945 215.278V99.0278H34.7222V215.278H73.1945Z" fill="black"/>
</svg>
