<svg width="319" height="250" viewBox="0 0 319 250" fill="none" xmlns="http://www.w3.org/2000/svg">
<path fill-rule="evenodd" clip-rule="evenodd" d="M6.55088 6.56668L6.55809 6.55948L6.56528 6.55228C11.034 2.07201 16.0455 0 22.2488 0H295.933C302.137 0 307.158 2.0727 311.641 6.55948C316.108 11.0308 318.182 16.0538 318.182 22.2787V227.721C318.182 233.943 316.11 238.973 311.642 243.456C307.162 247.93 302.141 250 295.933 250H22.2488C16.0389 250 11.0252 247.929 6.55808 243.458C2.0749 238.971 0 233.94 0 227.721V22.2787C0 16.0604 2.07422 11.0396 6.55088 6.56668ZM159.106 131.95L278.456 61.6825L272.388 51.3746L159.106 118.069L45.8249 51.3746L39.7561 61.6825L159.106 131.95Z" fill="black"/>
</svg>
