<svg width="358" height="250" viewBox="0 0 358 250" fill="none" xmlns="http://www.w3.org/2000/svg">
<path d="M142.857 178.571L235.536 125L142.857 71.4286V178.571ZM349.286 38.75C351.607 47.1429 353.214 58.3929 354.286 72.6786C355.536 86.9643 356.071 99.2857 356.071 110L357.143 125C357.143 164.107 354.286 192.857 349.286 211.25C344.821 227.321 334.464 237.679 318.393 242.143C310 244.464 294.643 246.071 271.071 247.143C247.857 248.393 226.607 248.929 206.964 248.929L178.571 250C103.75 250 57.1429 247.143 38.75 242.143C22.6786 237.679 12.3214 227.321 7.85714 211.25C5.53572 202.857 3.92857 191.607 2.85714 177.321C1.60714 163.036 1.07143 150.714 1.07143 140L0 125C0 85.8929 2.85714 57.1429 7.85714 38.75C12.3214 22.6786 22.6786 12.3214 38.75 7.85714C47.1429 5.53572 62.5 3.92857 86.0714 2.85714C109.286 1.60714 130.536 1.07143 150.179 1.07143L178.571 0C253.393 0 300 2.85714 318.393 7.85714C334.464 12.3214 344.821 22.6786 349.286 38.75Z" fill="black"/>
</svg>
